<?xml version="1.0" encoding="UTF-8" standalone="no"?>
<svg
   xmlns:dc="http://purl.org/dc/elements/1.1/"
   xmlns:cc="http://creativecommons.org/ns#"
   xmlns:rdf="http://www.w3.org/1999/02/22-rdf-syntax-ns#"
   xmlns:svg="http://www.w3.org/2000/svg"
   xmlns="http://www.w3.org/2000/svg"
   xmlns:sodipodi="http://sodipodi.sourceforge.net/DTD/sodipodi-0.dtd"
   xmlns:inkscape="http://www.inkscape.org/namespaces/inkscape"
   inkscape:version="1.0 (4035a4fb49, 2020-05-01)"
   sodipodi:docname="ER_directed_association.svg"
   id="svg55"
   height="100"
   width="528"
   version="1.1">
  <metadata
     id="metadata59">
    <rdf:RDF>
      <cc:Work
         rdf:about="">
        <dc:format>image/svg+xml</dc:format>
        <dc:type
           rdf:resource="http://purl.org/dc/dcmitype/StillImage" />
        <dc:title></dc:title>
      </cc:Work>
    </rdf:RDF>
  </metadata>
  <sodipodi:namedview
     inkscape:current-layer="svg55"
     inkscape:window-maximized="1"
     inkscape:window-y="-11"
     inkscape:window-x="2869"
     inkscape:cy="137"
     inkscape:cx="263.5"
     inkscape:zoom="2.6698292"
     showgrid="false"
     id="namedview57"
     inkscape:window-height="1526"
     inkscape:window-width="2880"
     inkscape:pageshadow="2"
     inkscape:pageopacity="0"
     guidetolerance="10"
     gridtolerance="10"
     objecttolerance="10"
     borderopacity="1"
     bordercolor="#666666"
     pagecolor="#ffffff" />
  <defs
     id="dmw_defs">
    <svg
       height="100%"
       width="100%"
       version="1.1"
       viewBox="0 0 48.665 48.665"
       id="fk_sym">
      <g
         id="g4">
        <path
           id="path2"
           fill="#13bf3b"
           d="m 40.332,31.592 c -2.377,0 -4.515,1 -6.033,2.598 L 16.562,25.504 c 0.061,-0.406 0.103,-0.82 0.103,-1.246 0,-0.414 -0.04,-0.818 -0.098,-1.215 l 17.711,-8.589 c 1.519,1.609 3.666,2.619 6.054,2.619 4.603,0 8.333,-3.731 8.333,-8.333 0,-4.603 -3.73,-8.333 -8.333,-8.333 -4.603,0 -8.333,3.73 -8.333,8.333 0,0.414 0.04,0.817 0.098,1.215 L 14.388,18.544 C 12.869,16.935 10.722,15.925 8.334,15.925 3.73,15.925 0,19.656 0,24.258 c 0,4.603 3.73,8.333 8.333,8.333 2.377,0 4.515,-1 6.033,-2.596 l 17.736,8.685 c -0.062,0.406 -0.104,0.82 -0.104,1.245 0,4.604 3.73,8.333 8.333,8.333 4.603,0 8.333,-3.729 8.333,-8.333 10e-4,-4.603 -3.729,-8.333 -8.332,-8.333 z" />
      </g>
    </svg>
    <svg
       height="100%"
       width="100%"
       version="1.1"
       viewBox="0 0 480.509 480.509"
       id="pk_sym">
      <g
         id="g9">
        <path
           id="path7"
           fill="#ff8345"
           d="m 418.119,331.046 c 4.094,4.374 7.766,8.186 10.996,11.416 3.237,3.238 6.714,6.376 10.427,9.422 3.71,3.042 6.427,4.568 8.135,4.568 3.241,0 9.517,-4.661 18.843,-13.99 9.328,-9.321 13.989,-15.604 13.989,-18.842 0,-1.523 -2.714,-5.421 -8.138,-11.704 -5.421,-6.276 -12.364,-13.702 -20.838,-22.271 -8.473,-8.565 -16.703,-16.744 -24.694,-24.55 -8.001,-7.81 -15.8,-15.373 -23.417,-22.703 -7.611,-7.327 -11.992,-11.56 -13.135,-12.703 -1.902,-1.902 -4.093,-2.853 -6.563,-2.853 -3.237,0 -9.521,4.661 -18.843,13.988 -9.328,9.322 -13.989,15.605 -13.989,18.843 0,1.711 1.522,4.421 4.568,8.138 3.046,3.71 6.188,7.187 9.421,10.424 3.23,3.23 7.047,6.899 11.42,10.992 4.377,4.093 6.848,6.423 7.423,6.995 L 356.316,323.62 254.954,222.268 c 24.94,-33.498 37.408,-68.236 37.408,-104.211 0,-31.024 -9.761,-56.293 -29.263,-75.801 C 243.587,22.745 218.321,12.991 187.294,12.991 156.84,12.991 127.05,22.033 97.931,40.11 68.81,58.193 45.204,81.796 27.123,110.918 9.042,140.038 0,169.828 0,200.28 c 0,31.029 9.753,56.286 29.265,75.803 19.511,19.517 44.777,29.27 75.801,29.27 35.976,0 70.71,-12.467 104.212,-37.407 l 191.574,191.579 c 5.332,5.328 11.796,7.994 19.417,7.994 7.991,0 15.704,-3.72 23.12,-11.14 7.426,-7.426 11.143,-15.129 11.143,-23.127 0,-7.617 -2.666,-14.092 -7.994,-19.417 l -62.811,-62.811 27.405,-27.404 c 0.567,0.575 2.901,3.046 6.987,7.426 z M 221.556,161.458 c -10.656,10.657 -23.601,15.987 -38.828,15.987 -7.996,0 -15.896,-1.812 -23.7,-5.43 3.617,7.808 5.426,15.706 5.426,23.7 0,15.229 -5.327,28.171 -15.987,38.828 -10.66,10.655 -23.606,15.986 -38.831,15.986 -15.227,0 -28.168,-5.325 -38.828,-15.986 -10.657,-10.657 -15.987,-23.599 -15.987,-38.828 0,-15.227 5.327,-28.171 15.987,-38.828 10.656,-10.657 23.601,-15.987 38.828,-15.987 7.992,0 15.893,1.809 23.695,5.424 -3.616,-7.804 -5.424,-15.706 -5.424,-23.699 0,-15.227 5.327,-28.171 15.987,-38.828 10.66,-10.657 23.604,-15.987 38.831,-15.987 15.227,0 28.171,5.327 38.828,15.987 10.657,10.66 15.987,23.601 15.987,38.828 -0.001,15.227 -5.331,28.172 -15.984,38.833 z" />
      </g>
    </svg>
    <svg
       height="100%"
       width="100%"
       version="1.1"
       viewBox="0 0 490 490"
       id="uk_sym">
      <g
         id="g16">
        <polygon
           id="polygon12"
           fill="#0064fb"
           points="236.99,139.391 236.99,11.41 0,246.348 236.99,478.678 236.99,350.609 129.864,245 " />
        <polygon
           id="polygon14"
           fill="#0064fb"
           points="253.01,350.609 253.01,478.59 490,243.651 253.01,11.322 253.01,139.391 360.136,245 " />
      </g>
    </svg>
    <svg
       height="100%"
       width="100%"
       version="1.1"
       viewBox="0 0 1000 900"
       id="link_sym">
      <g
         id="g21">
        <path
           id="path19"
           d="m 660.224,422.656 c 6.976,16.192 -0.512,35.008 -16.768,42.048 -16.128,6.976 -34.944,-0.448 -41.984,-16.768 -8.448,-19.776 -20.736,-37.696 -36.224,-53.248 -64.64,-64.64 -177.344,-64.64 -241.92,0 l -145.216,145.28 c -66.688,66.688 -66.688,175.232 0,241.984 66.688,66.688 175.104,66.752 241.92,0 l 92.8,-92.864 c 12.48,-12.48 32.768,-12.48 45.248,0 12.48,12.48 12.48,32.768 0,45.248 l -92.8,92.864 c -91.648,91.648 -240.832,91.52 -332.416,0 -91.712,-91.648 -91.712,-240.832 0,-332.48 L 278.08,349.44 c 44.352,-44.416 103.424,-68.864 166.272,-68.864 62.848,0 121.792,24.448 166.208,68.864 21.248,21.312 38.016,45.952 49.664,73.216 z M 891.136,401.344 745.92,546.56 c -88.768,88.832 -243.712,88.832 -332.416,0 -21.312,-21.312 -38.08,-45.952 -49.728,-73.216 -7.04,-16.256 0.448,-35.072 16.704,-42.048 16.064,-6.784 35.008,0.512 41.984,16.768 8.512,19.776 20.8,37.696 36.288,53.248 64.64,64.64 177.344,64.64 241.92,0 L 845.888,356.096 c 66.688,-66.688 66.688,-175.232 0,-241.984 -66.752,-66.624 -175.168,-66.688 -241.92,0 l -92.8,92.864 c -12.48,12.48 -32.768,12.48 -45.248,0 -12.48,-12.48 -12.48,-32.768 0,-45.248 l 92.8,-92.864 C 604.544,23.04 664.704,0.128 724.928,0.128 c 60.224,0 120.448,22.912 166.272,68.736 91.584,91.648 91.584,240.768 -0.064,332.48 z"
           fill="#000000" />
      </g>
    </svg>
    <clipPath
       id="clipPath22_0_"
       clipPathUnits="userSpaceOnUse">
      <rect
         id="rect24"
         height="88"
         width="174"
         y="0"
         x="0" />
    </clipPath>
    <clipPath
       id="clipPath12_0_"
       clipPathUnits="userSpaceOnUse">
      <rect
         id="rect27"
         height="94"
         width="174"
         y="0"
         x="0" />
    </clipPath>
  </defs>
  <g
     id="g34"
     transform="translate(1,4)"
     clip-path="url(#clipPath22_0_)"
     stroke-opacity="1"
     fill-opacity="1"
     stroke="#0000ff"
     fill="#95cce6">
    <rect
       id="rect31"
       ry="20"
       rx="20"
       height="87"
       width="173"
       y="0"
       x="0" />
    <text
       stroke="none"
       font-size="10px"
       fill-opacity="1"
       font-weight="bold"
       fill="#0000ff"
       y="14"
       x="67"
       id="B7688446-04647D424630">Election</text>
  </g>
  <g
     id="g39"
     transform="translate(353,5)"
     clip-path="url(#clipPath12_0_)"
     stroke-opacity="1"
     fill-opacity="1"
     stroke="#0000ff"
     fill="#95cce6">
    <rect
       id="rect36"
       ry="20"
       rx="20"
       height="93"
       width="173"
       y="0"
       x="0" />
    <text
       stroke="none"
       font-size="10px"
       fill-opacity="1"
       font-weight="bold"
       fill="#0000ff"
       y="14"
       x="68"
       id="D8479A3B-AA2578940855">Contest</text>
  </g>
  <g
     id="g45"
     stroke-linecap="butt">
    <path
       id="path41"
       d="M 353,48 H 175"
       stroke-width="1"
       stroke-opacity="1"
       fill="none"
       stroke="#000000" />
    <path
       id="path43"
       stroke="#000000"
       stroke-opacity="1"
       stroke-width="1"
       fill="#ffffff"
       d="m 353,54 -12,-6 12,-6"
       stroke-dasharray="none" />
  </g>
  <g
     id="g49">
    <text
       id="text47"
       stroke="none"
       font-size="10px"
       fill-opacity="1"
       fill="#000000"
       y="45"
       x="258">appearing in</text>
  </g>
  <g
     id="g53">
    <text
       id="text51"
       stroke="none"
       font-size="10px"
       fill-opacity="1"
       fill="#000000"
       y="63"
       x="186">made up of</text>
  </g>
</svg>
